P1
69 3
000000000000000000000000000000000000000000000000000000000000000000000
010100110010010011011110101000110101010011101010000100010011100101010
000000000000000000000000000000000000000000000000000000000000000000000
