P1
71 54
00000000000000000000000000000000000000000000000000000000000000000000000
00000000000000000000000000000000000000000000000000000000000000000000000
00101010001100011010011001011101101010111001010001001101100100111010100
00101010001100011010011001011101101010111001010001001101100100111010100
00101010001100011010011001011101101010111001010001001101100100111010100
00101010001100011010011001011101101010111001010001001101100100111010100
00101010001100011010011001011101101010111001010001001101100100111010100
00101010001100011010011001011101101010111001010001001101100100111010100
00101010001100011010011001011101101010111001010001001101100100111010100
00101010001100011010011001011101101010111001010001001101100100111010100
00101010001100011010011001011101101010111001010001001101100100111010100
00101010001100011010011001011101101010111001010001001101100100111010100
00101010001100011010011001011101101010111001010001001101100100111010100
00101010001100011010011001011101101010111001010001001101100100111010100
00101010001100011010011001011101101010111001010001001101100100111010100
00101010001100011010011001011101101010111001010001001101100100111010100
00101010001100011010011001011101101010111001010001001101100100111010100
00101010001100011010011001011101101010111001010001001101100100111010100
00101010001100011010011001011101101010111001010001001101100100111010100
00101010001100011010011001011101101010111001010001001101100100111010100
00101010001100011010011001011101101010111001010001001101100100111010100
00101010001100011010011001011101101010111001010001001101100100111010100
00101010001100011010011001011101101010111001010001001101100100111010100
00101010001100011010011001011101101010111001010001001101100100111010100
00101010001100011010011001011101101010111001010001001101100100111010100
00101010001100011010011001011101101010111001010001001101100100111010100
00101010001100011010011001011101101010111001010001001101100100111010100
00101010001100011010011001011101101010111001010001001101100100111010100
00101010001100011010011001011101101010111001010001001101100100111010100
00101010001100011010011001011101101010111001010001001101100100111010100
00101010001100011010011001011101101010111001010001001101100100111010100
00101010001100011010011001011101101010111001010001001101100100111010100
00101010001100011010011001011101101010111001010001001101100100111010100
00101010001100011010011001011101101010111001010001001101100100111010100
00101010001100011010011001011101101010111001010001001101100100111010100
00101010001100011010011001011101101010111001010001001101100100111010100
00101010001100011010011001011101101010111001010001001101100100111010100
00101010001100011010011001011101101010111001010001001101100100111010100
00101010001100011010011001011101101010111001010001001101100100111010100
00101010001100011010011001011101101010111001010001001101100100111010100
00101010001100011010011001011101101010111001010001001101100100111010100
00101010001100011010011001011101101010111001010001001101100100111010100
00101010001100011010011001011101101010111001010001001101100100111010100
00101010001100011010011001011101101010111001010001001101100100111010100
00101010001100011010011001011101101010111001010001001101100100111010100
00101010001100011010011001011101101010111001010001001101100100111010100
00101010001100011010011001011101101010111001010001001101100100111010100
00101010001100011010011001011101101010111001010001001101100100111010100
00101010001100011010011001011101101010111001010001001101100100111010100
00101010001100011010011001011101101010111001010001001101100100111010100
00101010001100011010011001011101101010111001010001001101100100111010100
00101010001100011010011001011101101010111001010001001101100100111010100
00000000000000000000000000000000000000000000000000000000000000000000000
00000000000000000000000000000000000000000000000000000000000000000000000
